<?xml version="1.0" encoding="UTF-8"?>
<svg id="Layer_1" xmlns="http://www.w3.org/2000/svg" version="1.1" viewBox="0 0 712.1 723.7">
  <!-- Generator: Adobe Illustrator 30.0.0, SVG Export Plug-In . SVG Version: 2.1.1 Build 123)  -->
  <defs>
    <style>
      .st0 {
        fill: #fff;
        fill-rule: evenodd;
      }
    </style>
  </defs>
  <g id="Layer_x5F_1">
    <g id="_977550008">
      <path class="st0" d="M286.1,711.7h154.7c3.3,0,6,2.7,6,6h0c0,3.3-2.7,6-6,6h-154.7c-3.3,0-6-2.7-6-6h0c0-3.3,2.7-6,6-6h0Z"/>
      <path class="st0" d="M233,674.5h261.5c5.6,0,10.2,2.7,10.2,6h0c0,3.3-4.6,6-10.2,6H233c-5.6,0-10.2-2.7-10.2-6h0c0-3.3,4.6-6,10.2-6Z"/>
      <path class="st0" d="M207.1,637.3h320c6.9,0,12.5,2.7,12.5,6h0c0,3.3-5.6,6-12.5,6H207.1c-6.9,0-12.5-2.7-12.5-6h0c0-3.3,5.6-6,12.5-6Z"/>
      <path class="st0" d="M189.9,597.6h361.8c7.8,0,14.1,2.7,14.1,6h0c0,3.3-6.3,6-14.1,6H189.9c-7.8,0-14.1-2.7-14.1-6h0c0-3.3,6.3-6,14.1-6Z"/>
      <path class="st0" d="M161.3,557.3h412.8c8.9,0,16.1,2.7,16.1,6h0c0,3.3-7.2,6-16.1,6H161.3c-8.9,0-16.1-2.7-16.1-6h0c0-3.3,7.2-6,16.1-6Z"/>
      <path class="st0" d="M200.8,517h394.9c8.5,0,15.4,2.7,15.4,6h0c0,3.3-6.9,6-15.4,6H200.8c-8.5,0-15.4-2.7-15.4-6h0c0-3.3,6.9-6,15.4-6Z"/>
      <path class="st0" d="M233.7,481.1h381c8.2,0,14.9,2.7,14.9,6h0c0,3.3-6.7,6-14.9,6H233.7c-8.2,0-14.9-2.7-14.9-6h0c0-3.3,6.7-6,14.9-6Z"/>
      <path class="st0" d="M278.3,443.3h347.4c7.5,0,13.5,2.7,13.5,6h0c0,3.3-6.1,6-13.5,6h-347.4c-7.5,0-13.5-2.7-13.5-6h0c0-3.3,6.1-6,13.5-6h0Z"/>
      <path class="st0" d="M314.8,407.3h323.5c7,0,12.6,2.7,12.6,6h0c0,3.3-5.6,6-12.6,6h-323.5c-7,0-12.6-2.7-12.6-6h0c0-3.3,5.6-6,12.6-6Z"/>
      <path class="st0" d="M351.2,369.2h299.3c6.4,0,11.7,2.7,11.7,6h0c0,3.3-5.2,6-11.7,6h-299.3c-6.4,0-11.7-2.7-11.7-6h0c0-3.3,5.2-6,11.7-6Z"/>
      <path class="st0" d="M397.5,327.7h272.1c5.9,0,10.6,2.7,10.6,6h0c0,3.3-4.7,6-10.6,6h-272.1c-5.9,0-10.6-2.7-10.6-6h0c0-3.3,4.7-6,10.6-6h0Z"/>
      <path class="st0" d="M436.1,293.1h244.9c5.3,0,9.5,2.7,9.5,6h0c0,3.3-4.3,6-9.5,6h-244.9c-5.3,0-9.5-2.7-9.5-6h0c0-3.3,4.3-6,9.5-6Z"/>
      <path class="st0" d="M473,255h216.6c4.7,0,8.4,2.7,8.4,6h0c0,3.3-3.8,6-8.4,6h-216.6c-4.7,0-8.4-2.7-8.4-6h0c0-3.3,3.8-6,8.4-6h0Z"/>
      <path class="st0" d="M517.3,216.9h182.3c3.9,0,7.1,2.7,7.1,6h0c0,3.3-3.2,6-7.1,6h-182.3c-3.9,0-7.1-2.7-7.1-6h0c0-3.3,3.2-6,7.1-6Z"/>
      <path class="st0" d="M550.9,179.7h145.9c3.1,0,5.7,2.7,5.7,6h0c0,3.3-2.5,6-5.7,6h-145.9c-3.1,0-5.7-2.7-5.7-6h0c0-3.3,2.5-6,5.7-6Z"/>
      <path class="st0" d="M590.7,144.7h116.8c2.5,0,4.5,2.7,4.5,6h0c0,3.3-2,6-4.5,6h-116.8c-2.5,0-4.5-2.7-4.5-6h0c0-3.3,2-6,4.5-6Z"/>
      <path class="st0" d="M624,103.1h84.8c1.8,0,3.3,2.7,3.3,6h0c0,3.3-1.5,6-3.3,6h-84.8c-1.8,0-3.3-2.7-3.3-6h0c0-3.3,1.5-6,3.3-6Z"/>
      <path class="st0" d="M654.8,64.8h53.1c1.1,0,2.1,2.7,2.1,6h0c0,3.3-.9,6-2.1,6h-53.1c-1.1,0-2.1-2.7-2.1-6h0c0-3.3.9-6,2.1-6Z"/>
      <path class="st0" d="M663.6,24.8v42.4c0,.9-1.7,1.7-3.8,1.7h0c-2.1,0-3.8-.7-3.8-1.7V24.8c0-.9,1.7-1.7,3.8-1.7h0c2.1,0,3.8.7,3.8,1.7Z"/>
      <path class="st0" d="M628.4,25.9v83.9c0,1.8-1.7,3.3-3.8,3.3h0c-2.1,0-3.8-1.5-3.8-3.3V25.9c0-1.8,1.7-3.3,3.8-3.3h0c2.1,0,3.8,1.5,3.8,3.3Z"/>
      <path class="st0" d="M593.9,32.1v117.7c0,2.5-1.7,4.6-3.8,4.6h0c-2.1,0-3.8-2.1-3.8-4.6V32.1c0-2.5,1.7-4.6,3.8-4.6h0c2.1,0,3.8,2.1,3.8,4.6Z"/>
      <path class="st0" d="M551.2,33.5v153.9c0,3.3-1.7,6-3.8,6h0c-2.1,0-3.8-2.7-3.8-6V33.5c0-3.3,1.7-6,3.8-6h0c2.1,0,3.8,2.7,3.8,6Z"/>
      <path class="st0" d="M517.9,39.4v182.4c0,3.9-1.7,7.1-3.8,7.1h0c-2.1,0-3.8-3.2-3.8-7.1V39.4c0-3.9,1.7-7.1,3.8-7.1h0c2.1,0,3.8,3.2,3.8,7.1Z"/>
      <path class="st0" d="M476,46.2v212.5c0,4.6-1.7,8.3-3.8,8.3h0c-2.1,0-3.8-3.7-3.8-8.3V46.2c0-4.6,1.7-8.3,3.8-8.3h0c2.1,0,3.8,3.7,3.8,8.3Z"/>
      <path class="st0" d="M436.5,49.3v240.4c0,5.2-1.7,9.4-3.8,9.4h0c-2.1,0-3.8-4.2-3.8-9.4V49.3c0-5.2,1.7-9.4,3.8-9.4h0c2.1,0,3.8,4.2,3.8,9.4Z"/>
      <path class="st0" d="M396.2,57v266.2c0,5.8-1.7,10.4-3.8,10.4h0c-2.1,0-3.8-4.7-3.8-10.4V57c0-5.8,1.7-10.4,3.8-10.4h0c2.1,0,3.8,4.7,3.8,10.4Z"/>
      <path class="st0" d="M350.5,71.4v294.4c0,6.4-1.7,11.5-3.8,11.5h0c-2.1,0-3.8-5.2-3.8-11.5V71.4c0-6.4,1.7-11.5,3.8-11.5h0c2.1,0,3.8,5.2,3.8,11.5Z"/>
      <path class="st0" d="M312.4,83v319.7c0,6.9-1.7,12.5-3.8,12.5h0c-2.1,0-3.8-5.6-3.8-12.5V83c0-6.9,1.7-12.5,3.8-12.5h0c2.1,0,3.8,5.6,3.8,12.5Z"/>
      <path class="st0" d="M274.3,97v339c0,7.3-1.7,13.3-3.8,13.3h0c-2.1,0-3.8-5.9-3.8-13.3V97c0-7.3,1.7-13.3,3.8-13.3h0c2.1,0,3.8,5.9,3.8,13.3Z"/>
      <path class="st0" d="M236.2,112.2v357.2c0,7.7-1.7,14-3.8,14h0c-2.1,0-3.8-6.3-3.8-14V112.2c0-7.7,1.7-14,3.8-14h0c2.1,0,3.8,6.3,3.8,14Z"/>
      <path class="st0" d="M198.1,125.5v386.1c0,8.3-1.7,15.1-3.8,15.1h0c-2.1,0-3.8-6.8-3.8-15.1V125.5c0-8.3,1.7-15.1,3.8-15.1h0c2.1,0,3.8,6.8,3.8,15.1Z"/>
      <path class="st0" d="M160,150.5v396.7c0,8.6-1.7,15.5-3.8,15.5h0c-2.1,0-3.8-6.9-3.8-15.5V150.5c0-8.6,1.7-15.5,3.8-15.5h0c2.1,0,3.8,6.9,3.8,15.5Z"/>
      <path class="st0" d="M121.9,171.7v359.6c0,7.8-1.7,14.1-3.8,14.1h0c-2.1,0-3.8-6.3-3.8-14.1V171.7c0-7.8,1.7-14.1,3.8-14.1h0c2.1,0,3.8,6.3,3.8,14.1Z"/>
      <path class="st0" d="M83.9,199.8v316.9c0,6.8-1.7,12.4-3.8,12.4h0c-2.1,0-3.8-5.6-3.8-12.4V199.8c0-6.8,1.7-12.4,3.8-12.4h0c2.1,0,3.8,5.5,3.8,12.4Z"/>
      <path class="st0" d="M45.8,230.7v255.9c0,5.5-1.7,10-3.8,10h0c-2.1,0-3.8-4.5-3.8-10v-255.9c0-5.5,1.7-10,3.8-10h0c2.1,0,3.8,4.5,3.8,10h0Z"/>
      <path class="st0" d="M7.7,281.4v156.1c0,3.4-1.7,6.1-3.8,6.1h0c-2.2.1-3.9-2.7-3.9-6v-156.1c0-3.4,1.7-6.1,3.8-6.1h0c2.1,0,3.8,2.7,3.8,6.1h0Z"/>
      <path class="st0" d="M45.8,697.9c-.8-2.5,57.3-122.8,250.7-291.8C489.9,237.1,578.1,170.6,702.8,4.1c0,0,7.2-9.7,2.2.9,0,0-33.1,106-320.7,349.9C96.8,598.7,66.3,669.9,66.3,669.9c0,0-21.2,32.5-20.5,28.1h0Z"/>
    </g>
  </g>
</svg>